<svg xmlns="http://www.w3.org/2000/svg" viewBox="0 0 512 512"><path d="M437 362h-60c-41.4 0-75 33.6-75 75v60c0 8.401 6.599 15 15 15h180c8.401 0 15-6.599 15-15v-60c0-41.4-33.6-75-75-75z" fill="#368dcf"/><path d="M512 437v60c0 8.401-6.599 15-15 15h-90V362h30c41.4 0 75 33.6 75 75z" fill="#2b75ad"/><path d="M135 362H75c-41.4 0-75 33.6-75 75v60c0 8.401 6.599 15 15 15h180c8.401 0 15-6.599 15-15v-60c0-41.4-33.6-75-75-75z" fill="#cf0404"/><path d="M210 437v60c0 8.401-6.599 15-15 15h-90V362h30c41.4 0 75 33.6 75 75z" fill="#b80000"/><path d="M105 272c-32.999 0-60 27.001-60 60s27.001 60 60 60 60-27.001 60-60-27.001-60-60-60z" fill="#ff3f2e"/><path d="M407 272c-32.999 0-60 27.001-60 60s27.001 60 60 60 60-27.001 60-60-27.001-60-60-60z" fill="#4ab8f7"/><path d="M467 332c0 32.999-27.001 60-60 60V272c32.999 0 60 27.001 60 60z" fill="#1ea1e3"/><path d="M165 332c0 32.999-27.001 60-60 60V272c32.999 0 60 27.001 60 60z" fill="#cf0404"/><path d="M406 36.301C396.7 32.1 386.499 30 376 30h-98.101c-7.5 0-13.799 5.7-14.7 13.2l-22.2 180c-.901 9 6 16.8 15 16.8h53.699l55.801 55.499C374.801 305.099 391 298.5 391 285v-46.5c5.099-.901 10.201-2.701 15-4.801 26.4-11.4 45-37.798 45-68.699v-60c0-30.901-18.6-57.299-45-68.699z" fill="#355382"/><path d="M256 0H136c-10.499 0-20.7 2.1-30 6.301C79.6 17.701 61 44.099 61 75v90c0 30.901 18.6 57.299 45 68.699 4.799 2.1 9.901 3.9 15 4.801V285c0 13.5 16.199 20.099 25.499 10.499L196 246.301l6.301-6.301H256c41.4 0 75-33.6 75-75V75c0-41.4-33.6-75-75-75z" fill="#ffda45"/><path d="M251.499 85.499L196 141c-8.01 8.006-16.594 13.874-25.499 4.499l-30-30c-6-5.7-6-15.298 0-20.999 5.7-6 15.298-6 20.999 0l19.5 19.199 15-15L230.501 64.5c5.7-6 15.298-6 20.999 0 6 5.701 6 15.299-.001 20.999z" fill="#3f6199"/></svg>